{"asset":{"version":"2.0","generator":"VECTARY"},"nodes":[{"translation":[0.001311966225588684,0.00009931629572637225,-0.0032994128511033985],"scale":[0.006381017728587666,0.006136550214785167,0.005229268319569891],"rotation":[-0.6897663697107259,-0.15563532766080523,-0.15563532766080532,0.689766369710726],"name":"Light bulb","mesh":0},{"translation":[0.001311966225588684,0.00009931629572637225,-0.0032994128511033985],"scale":[0.006381017728587666,0.006136550214785167,0.005229268319569891],"rotation":[-0.6897663697107259,-0.15563532766080523,-0.15563532766080532,0.689766369710726],"name":"Black plastic","mesh":1},{"translation":[0.001311966225588684,0.00009931629572637225,-0.0032994128511033985],"scale":[0.006381017728587666,0.006136550214785167,0.005229268319569891],"rotation":[-0.6897663697107259,-0.15563532766080523,-0.15563532766080532,0.689766369710726],"name":"Black plastic matte","mesh":2},{"translation":[-0.00024618726456537843,0.0001250000059371812,-0.002715424867346883],"scale":[1,1,1],"rotation":[0,0,0,1],"name":"Merged Objects","mesh":3},{"translation":[0.000037475572317506866,-2.842170943040401e-17,0.00003700979049937336],"scale":[0.001,0.001,0.0005],"rotation":[-0.7071067811865475,0,0,0.7071067811865476],"name":"Box - baked","mesh":4}],"materials":[{"pbrMetallicRoughness":{"baseColorFactor":[1,1,1,1],"metallicFactor":0,"roughnessFactor":0.2},"name":"Light bulb0","emissiveFactor":[1,1,1],"extensions":{},"alphaMode":"OPAQUE","doubleSided":false},{"pbrMetallicRoughness":{"baseColorFactor":[0,0,0,1],"metallicFactor":0,"roughnessFactor":0.53},"name":"Black plastic0","emissiveFactor":[0,0,0],"extensions":{},"alphaMode":"OPAQUE","doubleSided":false},{"pbrMetallicRoughness":{"baseColorFactor":[0,0,0,1],"metallicFactor":0,"roughnessFactor":0.79},"name":"Black plastic matte0","emissiveFactor":[0,0,0],"extensions":{},"alphaMode":"OPAQUE","doubleSided":false},{"pbrMetallicRoughness":{"baseColorFactor":[0,0,0,1],"metallicFactor":0,"roughnessFactor":0.2},"name":"Milton","emissiveFactor":[0,0,0],"extensions":{},"alphaMode":"OPAQUE","doubleSided":false},{"pbrMetallicRoughness":{"baseColorFactor":[0.8670237934377415,0.8670237934377415,0.8670237934377415,1],"metallicFactor":0,"roughnessFactor":0.2},"name":"Bella","emissiveFactor":[0,0,0],"extensions":{},"alphaMode":"OPAQUE","doubleSided":false}],"meshes":[{"primitives":[{"mode":4,"attributes":{"POSITION":1,"NORMAL":2,"TEXCOORD_0":3},"material":0,"indices":0}]},{"primitives":[{"mode":4,"attributes":{"POSITION":5,"NORMAL":6,"TEXCOORD_0":7},"material":1,"indices":4}]},{"primitives":[{"mode":4,"attributes":{"POSITION":9,"NORMAL":10,"TEXCOORD_0":11},"material":2,"indices":8}]},{"primitives":[{"mode":4,"attributes":{"POSITION":13,"NORMAL":14,"TEXCOORD_0":15},"material":3,"indices":12}]},{"primitives":[{"mode":4,"attributes":{"POSITION":17,"NORMAL":18,"TEXCOORD_0":19},"material":4,"indices":16}]}],"accessors":[{"bufferView":0,"byteOffset":0,"componentType":5125,"count":3264,"type":"SCALAR"},{"bufferView":1,"byteOffset":0,"componentType":5126,"count":1674,"max":[0.029094021767377853,-0.041040316224098206,0.2743912935256958],"min":[-0.029094023630023003,-0.11384056508541107,0.16048653423786163],"type":"VEC3"},{"bufferView":2,"byteOffset":0,"componentType":5126,"count":1674,"type":"VEC3"},{"bufferView":3,"byteOffset":0,"componentType":5126,"count":1674,"type":"VEC2"},{"bufferView":4,"byteOffset":0,"componentType":5125,"count":10812,"type":"SCALAR"},{"bufferView":5,"byteOffset":0,"componentType":5126,"count":5270,"max":[0.056246668100357056,0.055625155568122864,0.287084698677063],"min":[-0.05624666064977646,-0.14492951333522797,0.007638365030288696],"type":"VEC3"},{"bufferView":6,"byteOffset":0,"componentType":5126,"count":5270,"type":"VEC3"},{"bufferView":7,"byteOffset":0,"componentType":5126,"count":5270,"type":"VEC2"},{"bufferView":8,"byteOffset":0,"componentType":5125,"count":9750,"type":"SCALAR"},{"bufferView":9,"byteOffset":0,"componentType":5126,"count":5068,"max":[0.05876801535487175,0.05876791477203369,0.2788277268409729],"min":[-0.05876787751913071,-0.14207422733306885,0.00023749470710754395],"type":"VEC3"},{"bufferView":10,"byteOffset":0,"componentType":5126,"count":5068,"type":"VEC3"},{"bufferView":11,"byteOffset":0,"componentType":5126,"count":5068,"type":"VEC2"},{"bufferView":12,"byteOffset":0,"componentType":5125,"count":52899,"type":"SCALAR"},{"bufferView":13,"byteOffset":0,"componentType":5126,"count":43088,"max":[0.0007278965786099434,0.000025000001187436283,0.005969676189124584],"min":[-0.0007278965786099434,-0.000025000001187436283,0],"type":"VEC3"},{"bufferView":14,"byteOffset":0,"componentType":5126,"count":43088,"type":"VEC3"},{"bufferView":15,"byteOffset":0,"componentType":5126,"count":43088,"type":"VEC2"},{"bufferView":16,"byteOffset":0,"componentType":5125,"count":2904,"type":"SCALAR"},{"bufferView":17,"byteOffset":0,"componentType":5126,"count":1428,"max":[2.549999952316284,4.449999809265137,0.20000000298023224],"min":[-2.549999952316284,-4.449999809265137,0],"type":"VEC3"},{"bufferView":18,"byteOffset":0,"componentType":5126,"count":1428,"type":"VEC3"},{"bufferView":19,"byteOffset":0,"componentType":5126,"count":1428,"type":"VEC2"}],"bufferViews":[{"buffer":0,"byteOffset":0,"byteLength":13056,"target":34963},{"buffer":0,"byteOffset":13056,"byteLength":20088,"target":34962},{"buffer":0,"byteOffset":33144,"byteLength":20088,"target":34962},{"buffer":0,"byteOffset":53232,"byteLength":13392,"target":34962},{"buffer":0,"byteOffset":66624,"byteLength":43248,"target":34963},{"buffer":0,"byteOffset":109872,"byteLength":63240,"target":34962},{"buffer":0,"byteOffset":173112,"byteLength":63240,"target":34962},{"buffer":0,"byteOffset":236352,"byteLength":42160,"target":34962},{"buffer":0,"byteOffset":278512,"byteLength":39000,"target":34963},{"buffer":0,"byteOffset":317512,"byteLength":60816,"target":34962},{"buffer":0,"byteOffset":378328,"byteLength":60816,"target":34962},{"buffer":0,"byteOffset":439144,"byteLength":40544,"target":34962},{"buffer":0,"byteOffset":479688,"byteLength":211596,"target":34963},{"buffer":0,"byteOffset":691284,"byteLength":517056,"target":34962},{"buffer":0,"byteOffset":1208340,"byteLength":517056,"target":34962},{"buffer":0,"byteOffset":1725396,"byteLength":344704,"target":34962},{"buffer":0,"byteOffset":2070100,"byteLength":11616,"target":34963},{"buffer":0,"byteOffset":2081716,"byteLength":17136,"target":34962},{"buffer":0,"byteOffset":2098852,"byteLength":17136,"target":34962},{"buffer":0,"byteOffset":2115988,"byteLength":11424,"target":34962}],"scene":0,"scenes":[{"nodes":[0,1,2,3,4],"name":"Project Name"}],"extensionsUsed":["KHR_texture_transform"],"buffers":[{"byteLength":2127412,"uri":"ProjectName.bin"}]}